PathFileType	4	(X/Y/Z)	/Users/niels/Desktop/University/Third Semester/Perception and Action/Exam/Gymnastics Motion Tracking/Code for Gym Tracking/Analyzed Data/Start Salto/stsalto_bad_id2_1_Sports2D/stsalto_bad_id2_1_Sports2D_px_person00.trc
DataRate	CameraRate	NumFrames	NumMarkers	Units	OrigDataRate	OrigDataStartFrame	OrigNumFrames
29.84771573604061	29.84771573604061	8	22	m	29.84771573604061	98	197
Frame#	Time	Hip			RHip			RKnee			RAnkle			RBigToe			RSmallToe			RHeel			LHip			LKnee			LAnkle			LBigToe			LSmallToe			LHeel			Neck			Head			Nose			RShoulder			RElbow			RWrist			LShoulder			LElbow			LWrist		
		X1	Y1	Z1	X2	Y2	Z2	X3	Y3	Z3	X4	Y4	Z4	X5	Y5	Z5	X6	Y6	Z6	X7	Y7	Z7	X8	Y8	Z8	X9	Y9	Z9	X10	Y10	Z10	X11	Y11	Z11	X12	Y12	Z12	X13	Y13	Z13	X14	Y14	Z14	X15	Y15	Z15	X16	Y16	Z16	X17	Y17	Z17	X18	Y18	Z18	X19	Y19	Z19	X20	Y20	Z20	X21	Y21	Z21	X22	Y22	Z22
98	3.283333333333333	1.3386412058916095	-0.5296574279566346	0.0	1.3483992732125984	-0.5193892036434321	0.0	1.4592786438586627	-0.46877225628071356	0.0	1.5762167309849229	-0.502606269244009	0.0	1.6188185818922456	-0.4666360409473761	0.0	1.6175094431935713	-0.47572041525677505	0.0	1.5889014025710937	-0.5127059743630942	0.0	1.338230046197356	-0.5377109068635457	0.0	1.4328561587831938	-0.6036246220227488	0.0	1.46533469167213	-0.7131801853583649	0.0	1.5085820445390017	-0.7297106183223754	0.0	1.5014103161373842	-0.7331413578913374	0.0	1.461562620066515	-0.7320920587634416	0.0	1.2276237645573551	-0.4208895989439683	0.0	1.2172546751899778	-0.35312294768416624	0.0	1.2580136205957697	-0.38205173590353203	0.0	1.2335604507772522	-0.4326766272578775	0.0	1.2383110560694521	-0.4699359791745723	0.0	1.2272482589444549	-0.4729116507971578	0.0	1.2102786590629384	-0.4390019197893583	0.0	1.1933006809441171	-0.4623552910519555	0.0	1.1990010222451875	-0.466817246116014	0.0
99	3.316836734693877	1.3468058069803628	-0.5362199440396288	0.0	1.35572392171547	-0.526936285594322	0.0	1.4704869209055849	-0.4820383631770044	0.0	1.5846261896348308	-0.5243541999945418	0.0	1.6281089772388073	-0.491327167739033	0.0	1.626489744186006	-0.5001057718739672	0.0	1.5969935472891699	-0.535388678637008	0.0	1.3454827012176755	-0.5444535139400957	0.0	1.4371434292715881	-0.6170438161608796	0.0	1.4643756412729974	-0.728716886052297	0.0	1.5066562525808187	-0.7463474250660705	0.0	1.4991323688378089	-0.7497173678670628	0.0	1.4593760642560052	-0.7474627744691573	0.0	1.2399445568456442	-0.42640375625005755	0.0	1.230561820886841	-0.3554086055463454	0.0	1.270812539591727	-0.3851556967110909	0.0	1.2459961148177143	-0.43834970941155277	0.0	1.2537464847497768	-0.4857869777823939	0.0	1.245127472165908	-0.4864303946764102	0.0	1.22132625625559	-0.4445015592173858	0.0	1.2011849825635557	-0.4706926579738717	0.0	1.2096127393395106	-0.4748566631162429	0.0
100	3.3503401360544216	1.3547100041303215	-0.543271290327303	0.0	1.3627424861922035	-0.5349293215781975	0.0	1.4809994391947172	-0.4955126748330892	0.0	1.5921550280830927	-0.545718310554055	0.0	1.6357679414509965	-0.5153500489156956	0.0	1.6343138058313282	-0.523769947631622	0.0	1.6041343096887375	-0.5573916133024247	0.0	1.35281922916212	-0.5516819180775094	0.0	1.4412653033991036	-0.6298094959662875	0.0	1.463326104140818	-0.7431942134514999	0.0	1.5054638967362552	-0.7607620621315622	0.0	1.4973079437215038	-0.7639951556388367	0.0	1.457501844463382	-0.7616768914323531	0.0	1.2523893292113129	-0.43171103277587103	0.0	1.244020460755233	-0.3581577631640741	0.0	1.2835004439248847	-0.3894376768484375	0.0	1.2582568057984915	-0.4437592574614188	0.0	1.2687647221893974	-0.49794681681502884	0.0	1.2640235371977633	-0.500074944061681	0.0	1.233173602091141	-0.4498118212399944	0.0	1.2128018810943362	-0.4794629065918726	0.0	1.2245544119008935	-0.4834875822660644	0.0
101	3.3838435374149656	1.3624095917708752	-0.551022090263949	0.0	1.3698601566289919	-0.5433181482542769	0.0	1.4907517045914667	-0.5093585932570176	0.0	1.598918527245116	-0.5668299315514383	0.0	1.6428450436711723	-0.5390522005159498	0.0	1.6417713296228453	-0.5469806873575666	0.0	1.6102620186479277	-0.5789334303944182	0.0	1.3601487339485179	-0.5596889115253815	0.0	1.445341023348979	-0.6418845653547814	0.0	1.4624843239105987	-0.7562822350292855	0.0	1.5054472400068235	-0.77244585426694	0.0	1.4963131203297866	-0.7755678804410121	0.0	1.4563491560520592	-0.7742916087388103	0.0	1.2652023801892096	-0.4367951719318926	0.0	1.2577882740119715	-0.36164487450329347	0.0	1.296447066154339	-0.39488432619876873	0.0	1.2710599103932039	-0.44865639016698305	0.0	1.282919923706274	-0.5045862075731705	0.0	1.281955539173356	-0.5141857044924925	0.0	1.2455714237258464	-0.45498749560638674	0.0	1.2273440348336706	-0.48824976723772634	0.0	1.2424432302380297	-0.49403504360761347	0.0
102	3.41734693877551	1.3699994198242937	-0.5596226489396402	0.0	1.3774367077256853	-0.5521388137175766	0.0	1.49978448743595	-0.5237763684850424	0.0	1.6048838623599002	-0.5879560827926136	0.0	1.6499869857195182	-0.5630250248979998	0.0	1.6492723941183074	-0.5703279388269161	0.0	1.6153351126309339	-0.6004080969706839	0.0	1.3673475206741124	-0.568574102938835	0.0	1.4497803560611495	-0.6530101753269445	0.0	1.462057398299052	-0.7674573981621611	0.0	1.506189829554437	-0.7812678894851584	0.0	1.4959519307676188	-0.784340630033727	0.0	1.4559488627695163	-0.7847791548600436	0.0	1.2784830605138149	-0.4417605607295376	0.0	1.2721031807687548	-0.36587750210959347	0.0	1.309949250926873	-0.4011051808840645	0.0	1.2849409805072063	-0.4531282701893538	0.0	1.2965701127488394	-0.5068337197328956	0.0	1.2984004335909223	-0.5286379636183255	0.0	1.2583036829738914	-0.4601303066750701	0.0	1.2439589430854325	-0.4971418822248937	0.0	1.2613615492134898	-0.5066347390589883	0.0
103	3.450850340136054	1.3774190335061403	-0.5689099957022666	0.0	1.3854902951274062	-0.5612483897230534	0.0	1.508118886883373	-0.5387049002855105	0.0	1.6097850854150464	-0.6090819837123904	0.0	1.6570293721032705	-0.5873688183190516	0.0	1.6565594832959873	-0.5940319659962479	0.0	1.6191936322025529	-0.621938440836154	0.0	1.3741547260099516	-0.577972623675808	0.0	1.4551350076162548	-0.6624648680405633	0.0	1.4621617520155183	-0.7759311571781694	0.0	1.5068602138669807	-0.7873504471075513	0.0	1.495776138821534	-0.7903438302847287	0.0	1.456035242384063	-0.7924956647758701	0.0	1.2920081962168826	-0.44663581766995986	0.0	1.2869218767585944	-0.3705869382383669	0.0	1.3238850220459477	-0.40740787184416644	0.0	1.2998606888343052	-0.4574130216959331	0.0	1.3103312177670063	-0.5078293978408683	0.0	1.3139816383124843	-0.5428851581752376	0.0	1.2710442090823024	-0.46515351634895913	0.0	1.2614656809579186	-0.5063682787583211	0.0	1.279140007998968	-0.5200375823355728	0.0
104	3.4843537414965984	1.3844128450139912	-0.5784009868817676	0.0	1.3936186712606702	-0.5702801791749084	0.0	1.5157604003012313	-0.5538363961053095	0.0	1.6133563937725468	-0.6299413925643439	0.0	1.6632386768697356	-0.6115571082684651	0.0	1.662942068815603	-0.6177386095820356	0.0	1.6216514637134243	-0.6433893219630819	0.0	1.3802342116654966	-0.5871371906254973	0.0	1.4618348993007937	-0.6693070742363825	0.0	1.4627818013810687	-0.7810023103990422	0.0	1.5068486166983335	-0.7909503342032347	0.0	1.4954864424738705	-0.7936795040564112	0.0	1.4562890520713878	-0.7968980408414436	0.0	1.3054296998987205	-0.4513651771976361	0.0	1.3018751428827573	-0.37539888418498973	0.0	1.337823739414194	-0.41317640154787194	0.0	1.315332333010119	-0.46161646748002716	0.0	1.324576256301202	-0.5100735718153547	0.0	1.329541114603966	-0.5563321961435109	0.0	1.2835394317548985	-0.4698056891291725	0.0	1.2784478445019578	-0.5155305419984965	0.0	1.2943107209415725	-0.532269821771133	0.0
105	3.5178571428571423	1.39070248071323	-0.5875116175747709	0.0	1.40132639922589	-0.5788679786359031	0.0	1.5227642273783637	-0.5689038980166972	0.0	1.6155456107946098	-0.6503946693241182	0.0	1.66774937672284	-0.6351263581738987	0.0	1.6676660059232458	-0.6410748708004131	0.0	1.6226528448561706	-0.6646252913213988	0.0	1.3854145370613278	-0.5953477986032699	0.0	1.4700608646437956	-0.6728938090259087	0.0	1.4638143218109512	-0.7824057126209079	0.0	1.5062071662930945	-0.7924241231159754	0.0	1.495223660060107	-0.7946072793866805	0.0	1.4565331177936724	-0.7977945646302389	0.0	1.3185861947583315	-0.45588173210049276	0.0	1.3165464565961853	-0.38009166553044044	0.0	1.351427629311379	-0.4181898806593546	0.0	1.330831153244353	-0.4656485675678997	0.0	1.3394433657289175	-0.5142213376402475	0.0	1.3457471004429604	-0.5686006511538493	0.0	1.2958545253389595	-0.4738736335766017	0.0	1.2938093071780148	-0.5237150829046475	0.0	1.3069497293308008	-0.5419331023808482	0.0
